REM DIRINDEX 1\2,1\3,1\4,1\5
REM DIRNAME folder01,folder02,folder03,folder04,folder05
TITLE ""
FILE "1Q_t_0512-0521.mp3" MP3
  TRACK 01 AUDIO
    TITLE "3:cjc004_2438"
    INDEX 01 00:00:00
  TRACK 02 AUDIO
    TITLE "0:"
    INDEX 01 00:01:07
  TRACK 03 AUDIO
    TITLE "4:cjc004_2439"
    INDEX 01 00:01:32
  TRACK 04 AUDIO
    TITLE "0:"
    INDEX 01 00:02:45
  TRACK 05 AUDIO
    TITLE "5:cjc004_2440"
    INDEX 01 00:02:67
  TRACK 06 AUDIO
    TITLE "0:"
    INDEX 01 00:07:27
  TRACK 07 AUDIO
    TITLE "3:cjc004_2441"
    INDEX 01 00:07:74
  TRACK 08 AUDIO
    TITLE "0:"
    INDEX 01 00:09:06
  TRACK 09 AUDIO
    TITLE "4:cjc004_2442"
    INDEX 01 00:09:36
  TRACK 10 AUDIO
    TITLE "0:"
    INDEX 01 00:10:63
  TRACK 11 AUDIO
    TITLE "5:cjc004_2443"
    INDEX 01 00:11:13
  TRACK 12 AUDIO
    TITLE "0:"
    INDEX 01 00:14:33
  TRACK 13 AUDIO
    TITLE "3:cjc004_2444"
    INDEX 01 00:15:09
  TRACK 14 AUDIO
    TITLE "0:"
    INDEX 01 00:16:30
  TRACK 15 AUDIO
    TITLE "4:cjc004_2445"
    INDEX 01 00:16:55
  TRACK 16 AUDIO
    TITLE "0:"
    INDEX 01 00:17:70
  TRACK 17 AUDIO
    TITLE "5:cjc004_2446"
    INDEX 01 00:18:13
  TRACK 18 AUDIO
    TITLE "0:"
    INDEX 01 00:23:06
  TRACK 19 AUDIO
    TITLE "3:cjc004_2447"
    INDEX 01 00:23:59
  TRACK 20 AUDIO
    TITLE "0:"
    INDEX 01 00:24:57
  TRACK 21 AUDIO
    TITLE "4:cjc004_2448"
    INDEX 01 00:25:11
  TRACK 22 AUDIO
    TITLE "0:"
    INDEX 01 00:26:22
  TRACK 23 AUDIO
    TITLE "5:cjc004_2449"
    INDEX 01 00:26:48
  TRACK 24 AUDIO
    TITLE "0:"
    INDEX 01 00:31:51
  TRACK 25 AUDIO
    TITLE "3:cjc004_2450"
    INDEX 01 00:32:31
  TRACK 26 AUDIO
    TITLE "0:"
    INDEX 01 00:33:30
  TRACK 27 AUDIO
    TITLE "4:cjc004_2451"
    INDEX 01 00:33:64
  TRACK 28 AUDIO
    TITLE "0:"
    INDEX 01 00:35:00
  TRACK 29 AUDIO
    TITLE "5:cjc004_2452"
    INDEX 01 00:35:25
  TRACK 30 AUDIO
    TITLE "0:"
    INDEX 01 00:39:07
  TRACK 31 AUDIO
    TITLE "3:cjc004_2453"
    INDEX 01 00:39:66
  TRACK 32 AUDIO
    TITLE "0:"
    INDEX 01 00:41:30
  TRACK 33 AUDIO
    TITLE "4:cjc004_2454"
    INDEX 01 00:41:59
  TRACK 34 AUDIO
    TITLE "0:"
    INDEX 01 00:43:31
  TRACK 35 AUDIO
    TITLE "5:cjc004_2455"
    INDEX 01 00:43:58
  TRACK 36 AUDIO
    TITLE "0:"
    INDEX 01 00:47:72
  TRACK 37 AUDIO
    TITLE "3:cjc004_2456"
    INDEX 01 00:48:63
  TRACK 38 AUDIO
    TITLE "0:"
    INDEX 01 00:50:03
  TRACK 39 AUDIO
    TITLE "4:cjc004_2457"
    INDEX 01 00:50:35
  TRACK 40 AUDIO
    TITLE "0:"
    INDEX 01 00:51:58
  TRACK 41 AUDIO
    TITLE "5:cjc004_2458"
    INDEX 01 00:52:06
  TRACK 42 AUDIO
    TITLE "0:"
    INDEX 01 00:56:06
  TRACK 43 AUDIO
    TITLE "3:cjc004_2459"
    INDEX 01 00:56:61
  TRACK 44 AUDIO
    TITLE "0:"
    INDEX 01 00:58:03
  TRACK 45 AUDIO
    TITLE "4:cjc004_2460"
    INDEX 01 00:58:30
  TRACK 46 AUDIO
    TITLE "0:"
    INDEX 01 00:59:61
  TRACK 47 AUDIO
    TITLE "5:cjc004_2461"
    INDEX 01 01:00:12
  TRACK 48 AUDIO
    TITLE "0:"
    INDEX 01 01:04:33
  TRACK 49 AUDIO
    TITLE "3:cjc004_2462"
    INDEX 01 01:05:13
  TRACK 50 AUDIO
    TITLE "0:"
    INDEX 01 01:06:30
  TRACK 51 AUDIO
    TITLE "4:cjc004_2463"
    INDEX 01 01:06:57
  TRACK 52 AUDIO
    TITLE "0:"
    INDEX 01 01:08:40
  TRACK 53 AUDIO
    TITLE "5:cjc004_2464"
    INDEX 01 01:08:66
  TRACK 54 AUDIO
    TITLE "0:"
    INDEX 01 01:13:55
  TRACK 55 AUDIO
    TITLE "3:cjc004_2465"
    INDEX 01 01:14:29
  TRACK 56 AUDIO
    TITLE "0:"
    INDEX 01 01:15:42
  TRACK 57 AUDIO
    TITLE "4:cjc004_2466"
    INDEX 01 01:15:70
  TRACK 58 AUDIO
    TITLE "0:"
    INDEX 01 01:17:39
  TRACK 59 AUDIO
    TITLE "5:cjc004_2467"
    INDEX 01 01:17:63
  TRACK 60 AUDIO
    TITLE "0:"
    INDEX 01 01:22:66
